<?xml version="1.0" encoding="iso-8859-1"?>
<!-- Generator: Adobe Illustrator 19.0.0, SVG Export Plug-In . SVG Version: 6.00 Build 0)  -->
<svg version="1.1" id="Layer_1" xmlns="http://www.w3.org/2000/svg" xmlns:xlink="http://www.w3.org/1999/xlink" x="0px" y="0px"
	 viewBox="0 0 513.195 513.195" style="enable-background:new 0 0 513.195 513.195;" xml:space="preserve">
<g>
	<g>
		<g>
			<path d="M239.798,255.966h-0.085c-4.71,0-8.491,3.823-8.491,8.533s3.866,8.533,8.576,8.533c4.719,0,8.533-3.823,8.533-8.533
				S244.517,255.966,239.798,255.966z"/>
			<path d="M484.509,230.647l-36.702-36.71c-4.702-4.702-7.287-10.948-7.287-17.596s2.586-12.902,7.287-17.604l6.537-6.528
				c3.337-3.328,3.337-8.738,0.009-12.066c-3.337-3.337-8.738-3.328-12.075-0.009l-6.537,6.536
				c-7.927,7.927-12.288,18.458-12.288,29.67c0,11.204,4.361,21.743,12.288,29.67l30.669,30.669L214.54,488.559
				c-4.634,4.625-10.573,7.305-16.734,7.552c-5.538,0.222-10.59-1.57-13.918-4.89L51.621,358.955
				c-5.7-5.7-8.661-13.559-8.346-22.127c0.29-7.945,3.422-15.642,8.405-20.625L341.755,24.439
				c4.719-4.727,10.581-7.339,16.512-7.373h0.111c5.956,0,11.597,2.492,16.316,7.219l95.249,95.249v68.873
				c0,4.71,3.823,8.533,8.533,8.533s8.533-3.823,8.533-8.533v-72.405c0-2.261-0.896-4.437-2.5-6.033L386.759,12.22
				C378.883,4.335,368.805,0,358.369,0h-0.188c-10.453,0.06-20.574,4.446-28.51,12.39L39.598,304.154
				c-8.055,8.047-12.928,19.729-13.38,32.043c-0.486,13.363,4.25,25.728,13.338,34.825l132.267,132.267
				c6.34,6.34,15.42,9.907,25.097,9.907c0.512,0,1.033-0.009,1.562-0.026c10.462-0.418,20.454-4.873,28.126-12.544l257.903-257.911
				C487.845,239.377,487.845,233.975,484.509,230.647z"/>
			<path d="M273.932,290.099h-0.085c-4.71,0-8.491,3.823-8.491,8.533c0,4.71,3.866,8.533,8.576,8.533
				c4.719,0,8.533-3.823,8.533-8.533C282.465,293.922,278.651,290.099,273.932,290.099z"/>
			<path d="M265.356,230.366c0,4.71,3.866,8.533,8.576,8.533c4.719,0,8.533-3.823,8.533-8.533c0-4.71-3.814-8.533-8.533-8.533
				h-0.085C269.136,221.833,265.356,225.655,265.356,230.366z"/>
			<path d="M308.065,273.033c4.719,0,8.533-3.823,8.533-8.533s-3.814-8.533-8.533-8.533h-0.085c-4.71,0-8.491,3.823-8.491,8.533
				S303.355,273.033,308.065,273.033z"/>
			<path d="M267.643,138.999L148.176,258.466c-3.328,3.337-3.328,8.73,0,12.066l119.467,119.467c1.664,1.664,3.849,2.5,6.033,2.5
				c2.185,0,4.369-0.836,6.033-2.5l119.467-119.467c3.336-3.337,3.336-8.73,0-12.066L279.709,138.999
				C276.381,135.663,270.979,135.663,267.643,138.999z M273.676,371.9L166.275,264.499l107.401-107.401l107.401,107.401
				L273.676,371.9z"/>
		</g>
	</g>
</g>
<g>
</g>
<g>
</g>
<g>
</g>
<g>
</g>
<g>
</g>
<g>
</g>
<g>
</g>
<g>
</g>
<g>
</g>
<g>
</g>
<g>
</g>
<g>
</g>
<g>
</g>
<g>
</g>
<g>
</g>
</svg>
