<?xml version="1.0" encoding="iso-8859-1"?>
<!-- Generator: Adobe Illustrator 19.0.0, SVG Export Plug-In . SVG Version: 6.00 Build 0)  -->
<svg version="1.1" id="Layer_1" xmlns="http://www.w3.org/2000/svg" xmlns:xlink="http://www.w3.org/1999/xlink" x="0px" y="0px"
	 viewBox="0 0 512 512" style="enable-background:new 0 0 512 512;" xml:space="preserve">
<g>
	<g>
		<g>
			<path d="M281.6,34.133h-51.2c-23.526,0-42.667,19.14-42.667,42.667c0,4.71,3.823,8.533,8.533,8.533S204.8,81.51,204.8,76.8
				c0-14.114,11.486-25.6,25.6-25.6h51.2c14.114,0,25.6,11.486,25.6,25.6c0,4.71,3.823,8.533,8.533,8.533s8.533-3.823,8.533-8.533
				C324.267,53.274,305.126,34.133,281.6,34.133z"/>
			<path d="M469.333,102.4H42.667C19.14,102.4,0,121.54,0,145.067v51.2c0,11.571,6.921,20.89,17.067,24.252v248.815
				c0,23.526,19.14,42.667,42.667,42.667h392.533c23.526,0,42.667-19.14,42.667-42.667V247.467c0-4.71-3.823-8.533-8.533-8.533
				s-8.533,3.823-8.533,8.533v221.867c0,14.114-11.486,25.6-25.6,25.6H59.733c-14.114,0-25.6-11.486-25.6-25.6v-256
				c0-4.71-3.823-8.533-8.533-8.533c-5.265,0-8.533-3.268-8.533-8.533v-51.2c0-14.114,11.486-25.6,25.6-25.6h426.667
				c14.114,0,25.6,11.486,25.6,25.6v51.2c0,5.18-3.354,8.533-8.533,8.533h-42.667v-34.133c0-9.412-7.654-17.067-17.067-17.067H409.6
				c-9.412,0-17.067,7.654-17.067,17.067V204.8H119.467v-34.133c0-9.412-7.654-17.067-17.067-17.067H85.333
				c-9.412,0-17.067,7.654-17.067,17.067V204.8h-8.175c-4.719,0-8.533,3.823-8.533,8.533c0,4.71,3.814,8.533,8.533,8.533H76.8
				c4.71,0,8.533-3.823,8.533-8.533v-42.667H102.4v42.667c0,4.71,3.823,8.533,8.533,8.533h290.133c4.71,0,8.533-3.823,8.533-8.533
				v-42.667h17.067v42.667c0,4.71,3.823,8.533,8.533,8.533h51.2c14.592,0,25.6-11.008,25.6-25.6v-51.2
				C512,121.54,492.86,102.4,469.333,102.4z"/>
			<path d="M162.133,85.333c4.71,0,8.533-3.823,8.533-8.533c0-30.703,29.03-59.733,59.733-59.733h51.2
				c31.266,0,59.733,28.467,59.733,59.733c0,4.71,3.823,8.533,8.533,8.533S358.4,81.51,358.4,76.8c0-40.909-35.891-76.8-76.8-76.8
				h-51.2c-40.192,0-76.8,36.608-76.8,76.8C153.6,81.51,157.423,85.333,162.133,85.333z"/>
			<path d="M230.4,443.733h51.2c4.71,0,8.533-3.823,8.533-8.533v-42.667H332.8c4.71,0,8.533-3.823,8.533-8.533v-51.2
				c0-4.71-3.823-8.533-8.533-8.533h-42.667V281.6c0-4.71-3.823-8.533-8.533-8.533h-51.2c-4.71,0-8.533,3.823-8.533,8.533v42.667
				H179.2c-4.71,0-8.533,3.823-8.533,8.533V384c0,4.71,3.823,8.533,8.533,8.533h42.667V435.2
				C221.867,439.91,225.69,443.733,230.4,443.733z M187.733,375.467v-34.133H230.4c4.71,0,8.533-3.823,8.533-8.533v-42.667h34.133
				V332.8c0,4.71,3.823,8.533,8.533,8.533h42.667v34.133H281.6c-4.71,0-8.533,3.823-8.533,8.533v42.667h-34.133V384
				c0-4.71-3.823-8.533-8.533-8.533H187.733z"/>
			<path d="M401.067,238.933c-4.71,0-8.533,3.823-8.533,8.533V256c0,9.412,7.654,17.067,17.067,17.067h17.067
				c9.412,0,17.067-7.654,17.067-17.067v-8.533c0-4.71-3.823-8.533-8.533-8.533s-8.533,3.823-8.533,8.533V256H409.6v-8.533
				C409.6,242.756,405.777,238.933,401.067,238.933z"/>
			<path d="M76.8,238.933c-4.71,0-8.533,3.823-8.533,8.533V256c0,9.412,7.654,17.067,17.067,17.067H102.4
				c9.412,0,17.067-7.654,17.067-17.067v-8.533c0-4.71-3.823-8.533-8.533-8.533s-8.533,3.823-8.533,8.533V256H85.333v-8.533
				C85.333,242.756,81.51,238.933,76.8,238.933z"/>
		</g>
	</g>
</g>
<g>
</g>
<g>
</g>
<g>
</g>
<g>
</g>
<g>
</g>
<g>
</g>
<g>
</g>
<g>
</g>
<g>
</g>
<g>
</g>
<g>
</g>
<g>
</g>
<g>
</g>
<g>
</g>
<g>
</g>
</svg>
