<?xml version="1.0" encoding="iso-8859-1"?>
<!-- Generator: Adobe Illustrator 19.0.0, SVG Export Plug-In . SVG Version: 6.00 Build 0)  -->
<svg version="1.1" id="Layer_1" xmlns="http://www.w3.org/2000/svg" xmlns:xlink="http://www.w3.org/1999/xlink" x="0px" y="0px"
	 viewBox="0 0 512 512" style="enable-background:new 0 0 512 512;" xml:space="preserve">
<g>
	<g>
		<g>
			<path d="M325.811,17.067h24.055c4.71,0,8.533,3.831,8.533,8.533c0,4.25-3.217,7.851-7.484,8.388
				c-4.676,0.58-7.996,4.838-7.415,9.523c0.538,4.309,4.215,7.475,8.457,7.475c0.35,0,0.708-0.017,1.067-0.068
				c12.791-1.587,22.443-12.476,22.443-25.318c0-14.114-11.477-25.6-25.6-25.6h-24.055c-4.71,0-8.533,3.823-8.533,8.533
				S321.101,17.067,325.811,17.067z"/>
			<path d="M349.867,102.4c-2.765,0-5.581,0.111-8.533,0.341V102.4c0-55.509-46.891-102.4-102.4-102.4h-76.8
				c-14.114,0-25.6,11.486-25.6,25.6s11.486,25.6,25.6,25.6h76.8c28.237,0,51.2,22.963,51.2,51.2v14.933
				c-12.749,6.758-24.346,15.667-34.116,26.189c-9.933-10.769-21.521-19.499-34.15-26.197V102.4c0-7.518,1.707-14.899,5.069-21.914
				c2.031-4.25,0.23-9.353-4.019-11.383c-4.241-2.039-9.344-0.239-11.375,4.011c-4.471,9.344-6.741,19.191-6.741,29.286v7.432
				c-5.564-1.971-11.238-3.652-17.067-4.83V102.4c0-7.757,1.135-15.565,3.371-23.202c1.331-4.523-1.263-9.259-5.786-10.581
				c-4.506-1.331-9.259,1.254-10.59,5.786c-2.697,9.19-4.062,18.611-4.062,27.998v0.444c-2.833-0.188-5.658-0.444-8.533-0.444
				c-70.579,0-128,57.421-128,128c0,77.705,67.302,194.569,217.634,280.474c1.314,0.751,2.773,1.126,4.233,1.126
				c1.468,0,2.927-0.375,4.233-1.126c150.34-85.905,217.634-202.769,217.634-280.474C477.867,159.821,420.446,102.4,349.867,102.4z
				 M381.508,377.967H381.5l-34.133-34.133c-3.328-3.337-8.73-3.337-12.066,0c-3.328,3.336-3.328,8.73,0,12.066l19.567,19.567H332.8
				c-4.71,0-8.533,3.823-8.533,8.533s3.823,8.533,8.533,8.533h39.134l5.948,5.939C346.65,431.65,306.364,464.333,256,493.619
				C153.054,433.758,91.648,359.808,65.749,296.183l6.05-6.05h39.134c4.719,0,8.533-3.823,8.533-8.533s-3.814-8.533-8.533-8.533
				H88.866l19.567-19.567c3.337-3.337,3.337-8.73,0-12.066c-3.328-3.336-8.73-3.336-12.066,0l-34.125,34.125l-0.009,0.009
				l-2.893,2.893C53.973,261.291,51.2,245.06,51.2,230.4c0-61.167,49.766-110.933,110.933-110.933c4.617,0,9.182,0.333,13.688,0.887
				c1.041,0.452,2.176,0.717,3.379,0.717c0.128,0,0.23-0.068,0.35-0.077c10.368,1.647,20.386,4.634,29.764,9.062
				c0.452,0.247,0.913,0.452,1.425,0.614c14.788,7.245,27.981,17.818,38.554,31.258c3.243,4.113,10.18,4.113,13.414,0
				c10.487-13.329,24.192-24.277,39.637-31.642c2.97-1.417,4.855-4.42,4.855-7.706V102.4c0-37.641-30.626-68.267-68.267-68.267
				h-76.8c-4.702,0-8.533-3.831-8.533-8.533c0-4.702,3.831-8.533,8.533-8.533h76.8c46.259,0,85.333,39.083,85.333,85.333v9.89
				c0,2.475,1.075,4.83,2.953,6.451c1.869,1.613,4.361,2.338,6.801,1.988c5.999-0.862,11.034-1.263,15.846-1.263
				c27.52,0,52.676,10.138,72.09,26.786l-26.923,26.914c-3.328,3.337-3.328,8.73,0,12.066c1.672,1.664,3.849,2.5,6.033,2.5
				c2.185,0,4.369-0.836,6.033-2.5l26.923-26.914C450.671,177.724,460.8,202.88,460.8,230.4c0,43.136-22.912,99.473-71.475,155.392
				L381.508,377.967z"/>
		</g>
	</g>
</g>
<g>
</g>
<g>
</g>
<g>
</g>
<g>
</g>
<g>
</g>
<g>
</g>
<g>
</g>
<g>
</g>
<g>
</g>
<g>
</g>
<g>
</g>
<g>
</g>
<g>
</g>
<g>
</g>
<g>
</g>
</svg>
