<?xml version="1.0" encoding="iso-8859-1"?>
<!-- Generator: Adobe Illustrator 19.0.0, SVG Export Plug-In . SVG Version: 6.00 Build 0)  -->
<svg version="1.1" id="Layer_1" xmlns="http://www.w3.org/2000/svg" xmlns:xlink="http://www.w3.org/1999/xlink" x="0px" y="0px"
	 viewBox="0 0 512 512" style="enable-background:new 0 0 512 512;" xml:space="preserve">
<g>
	<g>
		<g>
			<path d="M93.867,51.2H59.733c-4.719,0-8.533,3.823-8.533,8.533v51.2c0,4.71,3.814,8.533,8.533,8.533h34.133
				c4.719,0,8.533-3.823,8.533-8.533v-51.2C102.4,55.023,98.586,51.2,93.867,51.2z M85.333,102.4H68.267V68.267h17.067V102.4z"/>
			<path d="M230.4,221.867c-4.719,0-8.533,3.823-8.533,8.533v68.267c0,4.71,3.814,8.533,8.533,8.533s8.533-3.823,8.533-8.533v-25.6
				h34.133v25.6c0,4.71,3.814,8.533,8.533,8.533c4.719,0,8.533-3.823,8.533-8.533V230.4c0-4.71-3.814-8.533-8.533-8.533
				c-4.719,0-8.533,3.823-8.533,8.533V256h-34.133v-25.6C238.933,225.69,235.119,221.867,230.4,221.867z"/>
			<path d="M366.933,477.867H128c-4.719,0-8.533,3.823-8.533,8.533v17.067c0,4.71,3.814,8.533,8.533,8.533s8.533-3.823,8.533-8.533
				v-8.533h230.4c4.719,0,8.533-3.823,8.533-8.533S371.652,477.867,366.933,477.867z"/>
			<path d="M93.867,256H59.733c-4.719,0-8.533,3.823-8.533,8.533V281.6c0,4.71,3.814,8.533,8.533,8.533s8.533-3.823,8.533-8.533
				v-8.533h17.067v42.667c0,4.71,3.814,8.533,8.533,8.533c4.719,0,8.533-3.823,8.533-8.533v-51.2
				C102.4,259.823,98.586,256,93.867,256z"/>
			<path d="M42.667,307.2C0.495,307.2,0,417.024,0,418.133c0,20.608,14.686,37.837,34.133,41.805v43.529
				c0,4.71,3.814,8.533,8.533,8.533s8.533-3.823,8.533-8.533v-43.529c19.447-3.968,34.133-21.197,34.133-41.805
				C85.333,417.024,84.838,307.2,42.667,307.2z M42.667,443.733c-14.114,0-25.6-11.486-25.6-25.6
				c0-42.513,11.418-93.867,25.6-93.867c14.182,0,25.6,51.354,25.6,93.867C68.267,432.247,56.781,443.733,42.667,443.733z"/>
			<path d="M93.867,153.6H59.733c-4.719,0-8.533,3.823-8.533,8.533v51.2c0,4.71,3.814,8.533,8.533,8.533h34.133
				c4.719,0,8.533-3.823,8.533-8.533v-51.2C102.4,157.423,98.586,153.6,93.867,153.6z M85.333,204.8H68.267v-34.133h17.067V204.8z"
				/>
			<path d="M213.333,119.467c4.719,0,8.533-3.823,8.533-8.533v-51.2c0-4.71-3.814-8.533-8.533-8.533H179.2
				c-4.719,0-8.533,3.823-8.533,8.533v51.2c0,4.71,3.814,8.533,8.533,8.533H213.333z M187.733,68.267H204.8V102.4h-17.067V68.267z"
				/>
			<path d="M170.667,366.933c0,4.71,3.814,8.533,8.533,8.533h25.6v76.8c0,4.71,3.814,8.533,8.533,8.533
				c4.719,0,8.533-3.823,8.533-8.533v-76.8h68.267v76.8c0,4.71,3.814,8.533,8.533,8.533s8.533-3.823,8.533-8.533v-76.8h25.6
				c4.719,0,8.533-3.823,8.533-8.533s-3.814-8.533-8.533-8.533H179.2C174.481,358.4,170.667,362.223,170.667,366.933z"/>
			<path d="M409.6,315.733c0,4.71,3.814,8.533,8.533,8.533h34.133c4.719,0,8.533-3.823,8.533-8.533v-51.2
				c0-4.71-3.814-8.533-8.533-8.533h-34.133c-4.719,0-8.533,3.823-8.533,8.533V315.733z M426.667,273.067h17.067V307.2h-17.067
				V273.067z"/>
			<path d="M409.6,418.133c0,4.71,3.814,8.533,8.533,8.533h34.133c4.719,0,8.533-3.823,8.533-8.533v-51.2
				c0-4.71-3.814-8.533-8.533-8.533h-34.133c-4.719,0-8.533,3.823-8.533,8.533V418.133z M426.667,375.467h17.067V409.6h-17.067
				V375.467z"/>
			<path d="M409.6,213.333c0,4.71,3.814,8.533,8.533,8.533h34.133c4.719,0,8.533-3.823,8.533-8.533v-51.2
				c0-4.71-3.814-8.533-8.533-8.533h-34.133c-4.719,0-8.533,3.823-8.533,8.533V213.333z M426.667,170.667h17.067V204.8h-17.067
				V170.667z"/>
			<path d="M418.133,119.467h34.133c4.719,0,8.533-3.823,8.533-8.533v-51.2c0-4.71-3.814-8.533-8.533-8.533h-34.133
				c-4.719,0-8.533,3.823-8.533,8.533v51.2C409.6,115.644,413.414,119.467,418.133,119.467z M426.667,68.267h17.067V102.4h-17.067
				V68.267z"/>
			<path d="M503.467,0H8.533C3.814,0,0,3.823,0,8.533V281.6c0,4.71,3.814,8.533,8.533,8.533s8.533-3.823,8.533-8.533V17.067h477.867
				V462.37c-2.679-0.956-5.521-1.57-8.533-1.57c-1.476,0-2.944,0.128-4.386,0.384c-5.879-10.607-17.101-17.451-29.747-17.451
				c-12.646,0-23.868,6.844-29.747,17.451c-1.442-0.256-2.91-0.384-4.386-0.384c-14.114,0-25.6,11.486-25.6,25.6
				s11.486,25.6,25.6,25.6H486.4c14.114,0,25.6-11.486,25.6-25.6V8.533C512,3.823,508.186,0,503.467,0z M486.4,494.933h-68.267
				c-4.71,0-8.533-3.831-8.533-8.533s3.823-8.533,8.533-8.533c1.63,0,3.191,0.469,4.625,1.391c2.33,1.51,5.257,1.775,7.834,0.742
				c2.577-1.05,4.471-3.285,5.111-5.99c1.801-7.774,8.602-13.21,16.563-13.21c7.962,0,14.763,5.436,16.563,13.21
				c0.64,2.705,2.534,4.941,5.111,5.99c2.577,1.033,5.495,0.768,7.834-0.742c5.555-3.584,13.158,0.811,13.158,7.142
				C494.933,491.102,491.11,494.933,486.4,494.933z"/>
			<path d="M249.941,412.075c-1.545,1.621-2.475,3.84-2.475,6.059c0,2.219,0.93,4.437,2.475,6.059
				c1.613,1.536,3.84,2.475,6.059,2.475c2.219,0,4.437-0.939,6.059-2.475c1.536-1.621,2.475-3.84,2.475-6.059
				c0-2.219-0.939-4.437-2.475-6.059C258.901,408.917,253.184,408.917,249.941,412.075z"/>
			<path d="M366.933,153.6H145.067c-4.719,0-8.533,3.823-8.533,8.533v290.133c0,4.71,3.814,8.533,8.533,8.533
				s8.533-3.823,8.533-8.533v-281.6h204.8v281.6c0,4.71,3.814,8.533,8.533,8.533s8.533-3.823,8.533-8.533V162.133
				C375.467,157.423,371.652,153.6,366.933,153.6z"/>
			<path d="M332.8,119.467c4.719,0,8.533-3.823,8.533-8.533v-51.2c0-4.71-3.814-8.533-8.533-8.533h-34.133
				c-4.719,0-8.533,3.823-8.533,8.533v51.2c0,4.71,3.814,8.533,8.533,8.533H332.8z M307.2,68.267h17.067V102.4H307.2V68.267z"/>
		</g>
	</g>
</g>
<g>
</g>
<g>
</g>
<g>
</g>
<g>
</g>
<g>
</g>
<g>
</g>
<g>
</g>
<g>
</g>
<g>
</g>
<g>
</g>
<g>
</g>
<g>
</g>
<g>
</g>
<g>
</g>
<g>
</g>
</svg>
