<?xml version="1.0" encoding="iso-8859-1"?>
<!-- Generator: Adobe Illustrator 19.0.0, SVG Export Plug-In . SVG Version: 6.00 Build 0)  -->
<svg version="1.1" id="Layer_1" xmlns="http://www.w3.org/2000/svg" xmlns:xlink="http://www.w3.org/1999/xlink" x="0px" y="0px"
	 viewBox="0 0 512.003 512.003" style="enable-background:new 0 0 512.003 512.003;" xml:space="preserve">
<g>
	<g>
		<g>
			<path d="M426.671,196.268c0-4.71-3.814-8.533-8.533-8.533s-8.533,3.823-8.533,8.533v25.6c0,78.012,18.193,113.442,18.876,114.739
				c3.729,7.509,9.822,25.617,4.838,33.647c-2.142,3.456-6.938,5.214-14.268,5.214h-69.18c-4.719,0-8.533,3.823-8.533,8.533
				s3.814,8.533,8.533,8.533h69.18c16.998,0,25.045-7.245,28.792-13.321c11.298-18.278-2.483-47.01-4.156-50.355
				c-0.171-0.333-17.015-33.783-17.015-106.991V196.268z"/>
			<path d="M136.538,196.268c0-4.71-3.823-8.533-8.533-8.533s-8.533,3.823-8.533,8.533c0,36.625,26.871,106.965,35.029,123.281
				c10.394,20.77,55.834,72.986,101.504,72.986s91.119-52.216,101.504-72.986c8.158-16.316,35.029-86.656,35.029-123.281
				c0-4.71-3.814-8.533-8.533-8.533c-4.719,0-8.533,3.823-8.533,8.533c0,19.337-8.858,50.833-17.801,76.689
				c-16.666-0.478-65.109-2.995-98.492-16.35c-2.048-0.802-4.301-0.802-6.349,0c-33.425,13.372-81.98,15.88-98.492,16.35
				C145.404,247.101,136.538,215.604,136.538,196.268z M256.004,273.682c32.546,12.151,75.017,15.326,95.531,16.154
				c-3.712,9.719-7.066,17.613-9.301,22.084c-7.654,15.317-48.154,63.548-86.229,63.548s-78.575-48.23-86.229-63.548
				c-2.236-4.471-5.589-12.356-9.301-22.076C180.911,289.017,223.407,285.851,256.004,273.682z"/>
			<path d="M213.338,238.935c4.71,0,8.533-3.823,8.533-8.533v-5.615c0.546,0.529,0.922,0.964,0.964,1.024
				c1.519,2.918,4.497,4.591,7.578,4.591c1.323,0,2.671-0.307,3.934-0.964c4.181-2.176,5.803-7.33,3.627-11.511
				c-2.534-4.873-10.581-13.124-24.636-13.124c-14.054,0-22.101,8.252-24.636,13.124c-2.125,4.087-0.555,8.969,3.456,11.23
				c4.011,2.287,9.165,0.811,11.563-3.123c0.077-0.128,0.495-0.623,1.084-1.195v5.564
				C204.804,235.112,208.627,238.935,213.338,238.935z"/>
			<path d="M298.671,238.935c4.719,0,8.533-3.823,8.533-8.533v-5.615c0.546,0.529,0.922,0.964,0.964,1.024
				c1.519,2.918,4.497,4.591,7.578,4.591c1.323,0,2.671-0.307,3.934-0.964c4.173-2.176,5.803-7.33,3.627-11.511
				c-2.534-4.873-10.59-13.124-24.636-13.124c-14.046,0-22.101,8.252-24.636,13.124c-2.125,4.087-0.546,8.969,3.456,11.23
				c3.994,2.261,9.156,0.819,11.554-3.123c0.085-0.128,0.503-0.623,1.092-1.195v5.564
				C290.138,235.112,293.952,238.935,298.671,238.935z"/>
			<path d="M511.561,500.771c-0.76-2.278-19.644-56.107-108.817-73.933c-4.463-0.896-8.849,1.869-9.95,6.289l-15.454,61.807H134.669
				l-15.454-61.807c-1.101-4.412-5.444-7.168-9.95-6.289C20.1,444.665,1.208,498.493,0.44,500.771
				c-1.485,4.446,0.913,9.233,5.359,10.744c4.437,1.527,9.276-0.87,10.82-5.291c0.64-1.843,16.06-43.836,88.047-60.919
				l15.061,60.237c0.947,3.797,4.361,6.46,8.277,6.46h256c3.917,0,7.322-2.662,8.277-6.46l15.053-60.237
				c71.996,17.084,87.424,59.068,88.047,60.86c1.186,3.576,4.514,5.837,8.09,5.837c0.888,0,1.801-0.137,2.697-0.435
				C510.639,510.073,513.054,505.243,511.561,500.771z"/>
			<path d="M136.794,428.742c1.152,4.565,5.786,7.356,10.351,6.204l28.518-7.134c10.291,13.594,41.515,50.057,80.341,50.057
				s70.05-36.463,80.341-50.057l28.527,7.134c4.548,1.152,9.199-1.638,10.342-6.204c1.143-4.574-1.638-9.207-6.212-10.351
				l-34.133-8.533c-3.507-0.87-7.159,0.546-9.156,3.533c-0.324,0.478-32.179,47.411-69.709,47.411s-69.385-46.933-69.7-47.411
				c-2.005-2.987-5.666-4.403-9.173-3.533l-34.133,8.533C138.432,419.534,135.65,424.168,136.794,428.742z"/>
			<path d="M92.958,392.535h69.18c4.71,0,8.533-3.823,8.533-8.533s-3.823-8.533-8.533-8.533h-69.18
				c-7.322,0-12.126-1.758-14.268-5.214c-4.983-8.03,1.109-26.138,5.06-34.142c0.759-1.801,18.654-45.047,18.654-114.244v-25.6
				c0-4.71-3.823-8.533-8.533-8.533c-4.71,0-8.533,3.823-8.533,8.533v25.6c0,65.417-17.101,107.119-17.084,107.119
				c-1.604,3.217-15.386,31.949-4.088,50.227C67.913,385.29,75.96,392.535,92.958,392.535z"/>
			<path d="M93.871,170.668h324.267c4.719,0,8.533-3.823,8.533-8.533V76.801c0-46.652-26.803-76.8-68.267-76.8H162.138
				c-43.785,0-76.8,33.016-76.8,76.8v85.333C85.338,166.845,89.161,170.668,93.871,170.668z M102.404,76.801
				c0-34.611,25.122-59.733,59.733-59.733h196.267c37.751,0,51.2,30.857,51.2,59.733v76.8h-307.2V76.801z"/>
			<path d="M281.604,76.801h-17.067V59.735c0-4.71-3.823-8.533-8.533-8.533c-4.71,0-8.533,3.823-8.533,8.533v17.067h-17.067
				c-4.71,0-8.533,3.823-8.533,8.533c0,4.71,3.823,8.533,8.533,8.533h17.067v17.067c0,4.71,3.823,8.533,8.533,8.533
				c4.71,0,8.533-3.823,8.533-8.533V93.868h17.067c4.719,0,8.533-3.823,8.533-8.533C290.138,80.624,286.323,76.801,281.604,76.801z"
				/>
		</g>
	</g>
</g>
<g>
</g>
<g>
</g>
<g>
</g>
<g>
</g>
<g>
</g>
<g>
</g>
<g>
</g>
<g>
</g>
<g>
</g>
<g>
</g>
<g>
</g>
<g>
</g>
<g>
</g>
<g>
</g>
<g>
</g>
</svg>
