<?xml version="1.0" encoding="iso-8859-1"?>
<!-- Generator: Adobe Illustrator 19.0.0, SVG Export Plug-In . SVG Version: 6.00 Build 0)  -->
<svg version="1.1" id="Layer_1" xmlns="http://www.w3.org/2000/svg" xmlns:xlink="http://www.w3.org/1999/xlink" x="0px" y="0px"
	 viewBox="0 0 512 512" style="enable-background:new 0 0 512 512;" xml:space="preserve">
<g>
	<g>
		<g>
			<path d="M66.927,341.862c-4.429-1.587-9.318,0.759-10.88,5.205c-3.217,9.114-4.847,18.662-4.847,28.399
				c0,10.078,1.741,19.951,5.188,29.346c1.263,3.465,4.531,5.606,8.013,5.606c0.973,0,1.963-0.171,2.927-0.521
				c4.429-1.621,6.707-6.528,5.086-10.948c-2.756-7.509-4.147-15.411-4.147-23.484c0-7.791,1.306-15.437,3.866-22.724
				C73.702,348.305,71.373,343.433,66.927,341.862z"/>
			<path d="M375.467,0c-36.386,0-70.699,14.165-96.64,39.902l-95.898,95.966c-3.328,3.328-3.328,8.738,0,12.066
				c3.337,3.328,8.738,3.336,12.075,0l95.872-95.94c22.699-22.519,52.736-34.927,84.591-34.927
				c65.869,0,119.467,53.589,119.467,119.467c0,31.915-12.424,61.909-34.995,84.471c-0.026,0.026-0.051,0.06-0.085,0.085
				c-2.21,2.236-89.387,89.37-113.357,113.331L171.537,159.334c-1.604-1.604-3.78-2.5-6.042-2.5c-2.261,0-4.429,0.896-6.033,2.5
				L45.107,273.784c-1.852,1.86-3.593,3.601-4.966,5.299l-0.154-0.154C14.199,304.708,0,338.995,0,375.467
				C0,450.748,61.244,512,136.533,512c36.924,0,71.535-14.558,97.391-40.917l95.138-95.087c3.328-3.328,3.328-8.73,0-12.066
				c-3.328-3.337-8.738-3.328-12.066-0.009l-95.198,95.147c-22.682,23.125-52.966,35.866-85.265,35.866
				c-65.877,0-119.467-53.589-119.467-119.467c0-31.915,12.425-61.909,34.987-84.471l0.128-0.137
				c2.304-2.33,71.834-71.919,113.314-113.425L340.625,352.7h0.009c3.328,3.336,8.73,3.336,12.066,0
				c0.495-0.495,0.922-1.041,1.271-1.621l112.905-112.862c1.86-1.869,3.601-3.61,4.975-5.299l0.154,0.154
				C497.792,207.292,512,173.005,512,136.533C512,61.252,450.748,0,375.467,0z"/>
			<path d="M443.733,136.533c0,4.71,3.814,8.533,8.533,8.533c4.71,0,8.533-3.823,8.533-8.533c0-28.109-13.85-54.417-37.035-70.357
				c-3.866-2.654-9.19-1.681-11.87,2.202c-2.662,3.883-1.681,9.19,2.202,11.861C432.649,92.996,443.733,114.039,443.733,136.533z"/>
		</g>
	</g>
</g>
<g>
</g>
<g>
</g>
<g>
</g>
<g>
</g>
<g>
</g>
<g>
</g>
<g>
</g>
<g>
</g>
<g>
</g>
<g>
</g>
<g>
</g>
<g>
</g>
<g>
</g>
<g>
</g>
<g>
</g>
</svg>
