<?xml version="1.0" encoding="iso-8859-1"?>
<!-- Generator: Adobe Illustrator 19.0.0, SVG Export Plug-In . SVG Version: 6.00 Build 0)  -->
<svg version="1.1" id="Layer_1" xmlns="http://www.w3.org/2000/svg" xmlns:xlink="http://www.w3.org/1999/xlink" x="0px" y="0px"
	 viewBox="0 0 512.002 512.002" style="enable-background:new 0 0 512.002 512.002;" xml:space="preserve">
<g>
	<g>
		<path d="M469.336,76.801c-7.689,0-22.588,1.988-35.9,15.3l-42.24,42.24l-13.363-13.363l42.069-42.411
			c13.312-13.312,15.3-28.203,15.3-35.9c0-23.526-19.14-42.667-42.667-42.667c-23.526,0-42.667,19.14-42.667,42.667
			c0,13.824,6.741,26.846,18.031,34.85c3.849,2.731,9.173,1.818,11.896-2.022c2.722-3.849,1.826-9.173-2.022-11.895
			c-6.784-4.813-10.837-12.638-10.837-20.932c0-14.114,11.486-25.6,25.6-25.6c14.114,0,25.6,11.486,25.6,25.6
			c0,8.602-3.755,17.289-10.325,23.859l-42.044,42.385l-35.635-35.644c-6.647-6.647-17.468-6.656-24.149,0L205.963,173.296
			c-3.337,3.328-3.337,8.73,0,12.066c3.328,3.328,8.73,3.328,12.066,0L318.057,85.334l66.807,66.799
			c0.094,0.111,0.128,0.256,0.239,0.367c0.111,0.111,0.247,0.145,0.367,0.239l41.199,41.207l-84.727,84.727l-20.173-20.173
			c-3.337-3.336-8.73-3.336-12.066,0c-3.336,3.337-3.336,8.73,0,12.066l20.173,20.173l-39.134,39.134l-20.173-20.173
			c-3.337-3.336-8.73-3.336-12.066,0c-3.336,3.337-3.336,8.73,0,12.066l20.173,20.173l-39.134,39.134l-20.173-20.173
			c-3.336-3.336-8.73-3.336-12.066,0c-3.337,3.337-3.337,8.73,0,12.066l20.173,20.173l-11.998,11.998
			c-9.668,9.668-26.53,9.66-36.207,0l-12.066-12.066c-1.604-1.604-3.772-2.5-6.033-2.5s-4.437,0.896-6.033,2.5l-30.165,30.165
			L88.766,387.03l30.165-30.165c3.337-3.337,3.337-8.738,0-12.066l-12.066-12.066c-4.779-4.779-7.569-11.213-7.859-18.108
			c-0.265-6.153,1.604-11.844,4.992-15.232l77.534-77.525h193.937c4.719,0,8.533-3.823,8.533-8.533c0-4.71-3.814-8.533-8.533-8.533
			h-197.47c-2.261,0-4.429,0.896-6.033,2.5l-80.034,80.017c-6.81,6.818-10.453,17.033-9.975,28.032
			c0.478,11.187,5.035,21.641,12.843,29.448l6.033,6.033L76.7,374.964c-6.656,6.656-6.656,17.485,0,24.141l12.066,12.066
			L2.502,497.435c-3.336,3.337-3.336,8.73,0,12.066c1.664,1.664,3.849,2.5,6.033,2.5c2.185,0,4.369-0.836,6.033-2.5l86.263-86.263
			l12.066,12.066c3.328,3.328,7.697,4.992,12.075,4.992c4.369,0,8.738-1.664,12.066-4.992l24.132-24.132l6.033,6.033
			c8.064,8.055,18.773,12.493,30.174,12.493c11.392,0,22.11-4.437,30.165-12.493l211.191-211.191c6.656-6.656,6.656-17.476,0-24.132
			l-35.473-35.473l42.24-42.24c6.554-6.545,15.232-10.3,23.834-10.3c14.114,0,25.6,11.486,25.6,25.6s-11.486,25.6-25.6,25.6
			c-8.294,0-16.12-4.053-20.932-10.837c-2.714-3.849-8.047-4.753-11.896-2.031c-3.849,2.731-4.745,8.055-2.022,11.895
			c8.004,11.298,21.035,18.039,34.85,18.039c23.526,0,42.667-19.14,42.667-42.667S492.862,76.801,469.336,76.801z"/>
	</g>
</g>
<g>
</g>
<g>
</g>
<g>
</g>
<g>
</g>
<g>
</g>
<g>
</g>
<g>
</g>
<g>
</g>
<g>
</g>
<g>
</g>
<g>
</g>
<g>
</g>
<g>
</g>
<g>
</g>
<g>
</g>
</svg>
