<?xml version="1.0" encoding="iso-8859-1"?>
<!-- Generator: Adobe Illustrator 19.0.0, SVG Export Plug-In . SVG Version: 6.00 Build 0)  -->
<svg version="1.1" id="Layer_1" xmlns="http://www.w3.org/2000/svg" xmlns:xlink="http://www.w3.org/1999/xlink" x="0px" y="0px"
	 viewBox="0 0 512 512" style="enable-background:new 0 0 512 512;" xml:space="preserve">
<g>
	<g>
		<g>
			<path d="M93.867,170.667h51.2c4.71,0,8.533-3.823,8.533-8.533c0-4.71-3.823-8.533-8.533-8.533h-51.2
				c-4.71,0-8.533,3.823-8.533,8.533C85.333,166.844,89.156,170.667,93.867,170.667z"/>
			<path d="M435.2,0c-13.986,0-21.316,8.482-24.166,17.067H196.267c-4.71,0-8.533,3.823-8.533,8.533v25.6H93.867
				C70.34,51.2,51.2,70.34,51.2,93.867v93.867c0,4.71,3.823,8.533,8.533,8.533c4.71,0,8.533-3.823,8.533-8.533V93.867
				c0-14.114,11.486-25.6,25.6-25.6h204.8c14.114,0,25.6,11.486,25.6,25.6v273.067c0,32.939-26.795,59.733-59.733,59.733h-17.067
				c-4.71,0-8.533,3.823-8.533,8.533v25.6H153.6v-25.6c0-4.71-3.823-8.533-8.533-8.533H128c-32.939,0-59.733-26.795-59.733-59.733
				V229.001c20.727-3.49,83.243-12.425,116.292,0.794c44.723,17.886,113.28,1.084,116.181,0.35
				c4.565-1.143,7.347-5.777,6.204-10.342c-1.143-4.574-5.794-7.356-10.342-6.212c-0.657,0.162-66.142,16.171-105.694,0.35
				c-44.51-17.801-129.254-1.152-132.847-0.435c-3.994,0.794-6.861,4.292-6.861,8.363v145.067c0,42.342,34.458,76.8,76.8,76.8h8.533
				V460.8c0,9.412,7.654,17.067,17.067,17.067h34.133v25.6c0,4.71,3.823,8.533,8.533,8.533s8.533-3.823,8.533-8.533v-25.6h34.133
				c9.412,0,17.067-7.654,17.067-17.067v-17.067h8.533c42.342,0,76.8-34.458,76.8-76.8V93.867c0-23.526-19.14-42.667-42.667-42.667
				H204.8V34.133h204.8v469.333c0,4.71,3.823,8.533,8.533,8.533c4.71,0,8.533-3.823,8.533-8.533V25.702
				c0.102-3.942,1.664-8.636,8.533-8.636s8.431,4.693,8.533,8.533v477.867c0,4.71,3.823,8.533,8.533,8.533s8.533-3.823,8.533-8.533
				V25.6C460.8,15.309,453.982,0,435.2,0z"/>
			<path d="M93.867,119.467h17.067c4.71,0,8.533-3.823,8.533-8.533s-3.823-8.533-8.533-8.533H93.867
				c-4.71,0-8.533,3.823-8.533,8.533S89.156,119.467,93.867,119.467z"/>
			<path d="M93.867,324.267h17.067c4.71,0,8.533-3.823,8.533-8.533s-3.823-8.533-8.533-8.533H93.867
				c-4.71,0-8.533,3.823-8.533,8.533S89.156,324.267,93.867,324.267z"/>
			<path d="M93.867,375.467h51.2c4.71,0,8.533-3.823,8.533-8.533s-3.823-8.533-8.533-8.533h-51.2c-4.71,0-8.533,3.823-8.533,8.533
				S89.156,375.467,93.867,375.467z"/>
			<path d="M93.867,273.067h17.067c4.71,0,8.533-3.823,8.533-8.533c0-4.71-3.823-8.533-8.533-8.533H93.867
				c-4.71,0-8.533,3.823-8.533,8.533C85.333,269.244,89.156,273.067,93.867,273.067z"/>
		</g>
	</g>
</g>
<g>
</g>
<g>
</g>
<g>
</g>
<g>
</g>
<g>
</g>
<g>
</g>
<g>
</g>
<g>
</g>
<g>
</g>
<g>
</g>
<g>
</g>
<g>
</g>
<g>
</g>
<g>
</g>
<g>
</g>
</svg>
