<?xml version="1.0" encoding="iso-8859-1"?>
<!-- Generator: Adobe Illustrator 19.0.0, SVG Export Plug-In . SVG Version: 6.00 Build 0)  -->
<svg version="1.1" id="Layer_1" xmlns="http://www.w3.org/2000/svg" xmlns:xlink="http://www.w3.org/1999/xlink" x="0px" y="0px"
	 viewBox="0 0 512 512" style="enable-background:new 0 0 512 512;" xml:space="preserve">
<g>
	<g>
		<g>
			<path d="M59.733,17.067h45.423l31.377,78.438V153.6c0,4.71,3.814,8.533,8.533,8.533c4.71,0,8.533-3.823,8.533-8.533v-51.2
				h145.067c14.114,0,25.6,11.486,25.6,25.6v8.533H179.2c-4.719,0-8.533,3.823-8.533,8.533c0,4.71,3.814,8.533,8.533,8.533h153.6
				c4.71,0,8.533-3.823,8.533-8.533V128c0-23.526-19.14-42.667-42.667-42.667H150.844L118.852,5.359
				C117.555,2.125,114.423,0,110.933,0h-51.2C55.014,0,51.2,3.823,51.2,8.533S55.014,17.067,59.733,17.067z"/>
			<path d="M170.667,273.067c-37.641,0-68.267,30.626-68.267,68.267c0,37.641,30.626,68.267,68.267,68.267
				c37.641,0,68.267-30.626,68.267-68.267C238.933,303.693,208.307,273.067,170.667,273.067z M170.667,392.533
				c-28.237,0-51.2-22.963-51.2-51.2c0-28.237,22.963-51.2,51.2-51.2c28.228,0,51.2,22.963,51.2,51.2
				C221.867,369.57,198.895,392.533,170.667,392.533z"/>
			<path d="M170.923,332.8h-0.094c-4.702,0-8.482,3.823-8.482,8.533s3.857,8.533,8.576,8.533c4.71,0,8.533-3.823,8.533-8.533
				S175.633,332.8,170.923,332.8z"/>
			<path d="M267.213,244.787c-0.111-0.128-0.282-0.162-0.41-0.273c-24.687-24.525-58.675-39.714-96.137-39.714
				c-37.487,0-71.467,15.198-96.171,39.731c-0.111,0.102-0.265,0.137-0.375,0.256c-0.102,0.102-0.137,0.256-0.247,0.367
				c-24.542,24.704-39.74,58.692-39.74,96.179c0,37.513,15.215,71.518,39.782,96.222c0.094,0.094,0.12,0.222,0.205,0.316
				c0.094,0.085,0.222,0.111,0.307,0.196c24.704,24.576,58.718,39.799,96.239,39.799c37.478,0,71.484-15.198,96.171-39.748
				c0.119-0.094,0.265-0.137,0.375-0.247c0.111-0.111,0.154-0.256,0.247-0.367c24.533-24.704,39.74-58.692,39.74-96.171
				c0-37.47-15.198-71.45-39.723-96.145C267.375,245.06,267.332,244.907,267.213,244.787z M260.847,419.448l-5.709-5.717
				c-3.328-3.328-8.73-3.328-12.066,0c-3.337,3.337-3.337,8.738,0,12.066l5.709,5.717c-20.966,18.185-48.239,29.286-78.114,29.286
				c-29.875,0-57.156-11.102-78.123-29.286l5.709-5.717c3.337-3.328,3.337-8.73,0-12.066c-3.328-3.328-8.73-3.328-12.066,0
				l-5.709,5.717C62.293,398.473,51.2,371.2,51.2,341.333c0-29.875,11.102-57.148,29.286-78.123l5.7,5.709
				c1.673,1.664,3.849,2.5,6.033,2.5c2.185,0,4.369-0.836,6.033-2.5c3.337-3.337,3.337-8.738,0-12.066l-5.7-5.709
				c20.966-18.185,48.247-29.278,78.114-29.278c29.867,0,57.139,11.093,78.106,29.278l-5.7,5.7c-3.337,3.336-3.337,8.738,0,12.075
				c1.664,1.664,3.849,2.5,6.033,2.5c2.185,0,4.369-0.836,6.033-2.5l5.709-5.7c18.185,20.966,29.286,48.247,29.286,78.114
				C290.133,371.2,279.04,398.473,260.847,419.448z"/>
			<path d="M477.867,427.529V281.6v-17.067c0-23.526-19.14-42.667-42.667-42.667H329.062c-4.719,0-8.533,3.823-8.533,8.533
				s3.814,8.533,8.533,8.533H435.2c14.114,0,25.6,11.486,25.6,25.6v8.533H354.534c-4.719,0-8.533,3.823-8.533,8.533
				s3.814,8.533,8.533,8.533H460.8v137.395c-19.456,3.968-34.133,21.197-34.133,41.805c0,23.526,19.14,42.667,42.667,42.667
				C492.86,512,512,492.86,512,469.333C512,448.725,497.314,431.497,477.867,427.529z M469.333,494.933
				c-14.123,0-25.6-11.486-25.6-25.6c0-11.11,7.159-20.489,17.067-24.03v24.03c0,4.71,3.814,8.533,8.533,8.533
				c4.71,0,8.533-3.823,8.533-8.533v-24.03c9.907,3.541,17.067,12.919,17.067,24.03
				C494.933,483.448,483.448,494.933,469.333,494.933z"/>
			<path d="M170.667,170.667C76.553,170.667,0,247.228,0,341.333S76.553,512,170.667,512c94.106,0,170.667-76.561,170.667-170.667
				S264.772,170.667,170.667,170.667z M170.667,494.933c-84.693,0-153.6-68.907-153.6-153.6s68.907-153.6,153.6-153.6
				s153.6,68.907,153.6,153.6S255.36,494.933,170.667,494.933z"/>
		</g>
	</g>
</g>
<g>
</g>
<g>
</g>
<g>
</g>
<g>
</g>
<g>
</g>
<g>
</g>
<g>
</g>
<g>
</g>
<g>
</g>
<g>
</g>
<g>
</g>
<g>
</g>
<g>
</g>
<g>
</g>
<g>
</g>
</svg>
